HIERARCHY
ROOT Hip
{
    OFFSET 0.0 0.0 0.0
    CHANNELS 6 Xposition Yposition Zposition Zrotation Xrotation Yrotation
    JOINT RightHip
    {
        OFFSET -9.598588943481445 0.0 0.0
        CHANNELS 3 Zrotation Xrotation Yrotation
        JOINT RightKnee
        {
            OFFSET 0.0 0.0 -36.91640090942383
            CHANNELS 3 Zrotation Xrotation Yrotation
            JOINT RightAnkle
            {
                OFFSET 0.0 0.0 -37.65476989746094
                CHANNELS 3 Zrotation Xrotation Yrotation
                End Site
                {
                    OFFSET 0.0 -15.061907768249512 0.0
                }
            }
        }
    }
    JOINT LeftHip
    {
        OFFSET 9.598588943481445 0.0 0.0
        CHANNELS 3 Zrotation Xrotation Yrotation
        JOINT LeftKnee
        {
            OFFSET 0.0 0.0 -36.91640090942383
            CHANNELS 3 Zrotation Xrotation Yrotation
            JOINT LeftAnkle
            {
                OFFSET 0.0 0.0 -37.65476989746094
                CHANNELS 3 Zrotation Xrotation Yrotation
                End Site
                {
                    OFFSET 0.0 -15.061907768249512 0.0
                }
            }
        }
    }
    JOINT Spine
    {
        OFFSET 0.0 0.0 42.046348571777344
        CHANNELS 3 Zrotation Xrotation Yrotation
        JOINT Thorax
        {
            OFFSET 0.0 0.0 12.655683517456055
            CHANNELS 3 Zrotation Xrotation Yrotation
            JOINT Neck
            {
                OFFSET 0.0 0.0 0.0
                CHANNELS 3 Zrotation Xrotation Yrotation
                End Site
                {
                    OFFSET 0.0 0.0 0.0
                }
            }
            JOINT LeftShoulder
            {
                OFFSET 17.508975982666016 0.0 0.0
                CHANNELS 3 Zrotation Xrotation Yrotation
                JOINT LeftElbow
                {
                    OFFSET 29.470849990844727 0.0 0.0
                    CHANNELS 3 Zrotation Xrotation Yrotation
                    JOINT LeftWrist
                    {
                        OFFSET 21.095163345336914 0.0 0.0
                        CHANNELS 3 Zrotation Xrotation Yrotation
                        End Site
                        {
                            OFFSET 8.438065528869629 0.0 0.0
                        }
                    }
                }
            }
            JOINT RightShoulder
            {
                OFFSET -17.508975982666016 0.0 0.0
                CHANNELS 3 Zrotation Xrotation Yrotation
                JOINT RightElbow
                {
                    OFFSET -29.470849990844727 0.0 0.0
                    CHANNELS 3 Zrotation Xrotation Yrotation
                    JOINT RightWrist
                    {
                        OFFSET -21.095163345336914 0.0 0.0
                        CHANNELS 3 Zrotation Xrotation Yrotation
                        End Site
                        {
                            OFFSET -8.438065528869629 0.0 0.0
                        }
                    }
                }
            }
        }
    }
}
MOTION
Frames: 11
Frame Time: 0.03333333333333333
8.785202026367188 55.46315002441406 -2.419952392578125 33.84099367233103 -64.63422612702648 39.64557292693583 -0.3526592475767941 -8.335369060393743 -6.897846290281204 -0.7414650724686115 7.975162049992445 3.0508331484820563 7.951386703658792e-16 6.3611093629270335e-15 -4.4139062980501586e-32 -0.367965268613636 -21.068800784692545 -3.4914607847613173 -1.008040125030805 25.2367677989141 3.5343542688906906 -2.3854160110976368e-15 -6.361109362927032e-15 -7.951386703658792e-16 -0.30463621440873073 -11.988887272627249 0.879970500225043 1.592563884458633 -2.042707690419227e-06 5.3593554449831405e-08 -4.174261139552812 4.983156901414735 1.1049150182979686 -37.84400810221066 23.278913226782674 83.21481828804062 -33.47093427203174 -2.6547949344981193e-06 8.905301581192473e-07 -8.827812596100317e-32 3.1805546814635168e-15 3.1805546814635168e-15 44.307330579916986 9.923259621364675 -85.95373547185898 12.923226892312849 -2.2620119054880594e-07 3.70256461693e-07 -6.361109362927035e-15 -1.5902773407317592e-15 4.770832022195277e-15
8.769233703613281 55.460548400878906 -2.4067230224609375 33.39156982365675 -64.77457061981171 39.22468164673573 -0.19279667959974728 -8.451366936808512 -6.961839981234519 -0.7510954820725735 8.168485262288113 3.218410806494878 0.0 6.3611093629270335e-15 0.0 -0.627051324189775 -20.95549943620481 -3.7047077402937725 -0.99561187195269 25.031431369654108 3.790753389374485 2.3854160110976376e-15 6.3611093629270335e-15 3.9756933518293945e-16 -0.3405051709302744 -12.02728526610457 0.5535804478441284 2.096667203779493 2.615181564813081e-06 -1.057420487266818e-06 -4.3842971753042095 4.932142848385417 1.1723032659644137 -38.537115057671876 23.227805390551705 83.48871481630734 -33.662653019529074 -9.889564826987358e-07 -1.4801346738268818e-07 6.3611093629270335e-15 3.1805546814635168e-15 -3.1805546814635168e-15 43.44412214579791 10.17684015398223 -85.73286157366216 12.828376984509378 1.7112025276963144e-06 -1.1156531874409504e-07 0.0 -3.1805546814635168e-15 0.0
8.760940551757812 55.484649658203125 -2.4414520263671875 33.21407562050569 -64.72461443762704 39.037583421489664 0.07475638020917945 -8.598145557700004 -6.896179870526287 -0.7367460341980413 8.24359745115255 3.23536619884598 1.5902773407317582e-15 6.361109362927033e-15 -7.951386703658792e-16 -0.9717507095005259 -20.90891904048804 -3.7996021575178545 -0.9476417731898458 24.747670437994927 3.94056826447824 7.951386703658794e-16 -6.361109362927035e-15 1.1927080055488192e-15 -0.373053564973074 -12.254179678157435 0.3702237342774814 2.4871658420894174 1.6570066806729226e-06 -1.4548130052911084e-07 -4.589009152290416 4.949277175652901 1.2535759923673049 -39.62150036107993 23.34731276371159 83.92012477834581 -33.46917789573014 -2.6210758081676843e-06 -6.570029183628829e-08 0.0 0.0 0.0 41.923161619109784 10.442974819280469 -85.55596980881758 13.031058434593415 2.4297418048014577e-06 -1.3546938612434135e-06 -4.4139062980501586e-32 -1.5902773407317584e-15 -3.1805546814635168e-15
8.786285400390625 55.55632019042969 -2.5782623291015625 34.1880955205191 -64.31876042815578 39.83474580120324 -0.012577936711295956 -8.684175828822374 -6.620512984547479 -0.7180236607202601 8.1925027119103 3.0636215174305597 0.0 -6.3611093629270335e-15 0.0 -0.8396248804796183 -21.25728213468868 -3.4751127879040538 -0.8404405358162883 24.85137790135631 3.6457937854680327 7.951386703658791e-16 6.4605016967227685e-15 1.987846675914698e-15 -0.34207402859687375 -12.155915957203366 0.2731075601659301 2.2034673920996393 -3.5842244153364187e-06 9.371128692938132e-07 -4.7872633225461065 5.005501692530958 1.3510900339573635 -40.39336661836344 23.226529461171374 84.18140827299433 -33.2957825955911 -9.720584946481138e-07 3.807495642155076e-06 -6.3611093629270335e-15 -3.1805546814635168e-15 6.3611093629270335e-15 40.39778088592964 10.508812844609155 -85.05443529552592 13.335008141806293 -2.2415613339478723e-06 -3.380238031831615e-06 6.3611093629270335e-15 1.5902773407317584e-15 -8.827812596100317e-32
8.806114196777344 55.66124725341797 -2.8449249267578125 34.45504504099516 -63.98636603512592 39.972675935452685 0.2891117643081011 -8.89632219902963 -6.192924547144991 -0.6585765473735458 7.914159093395538 2.6948604367750577 8.551943452472182e-32 6.1623246953355635e-15 -1.5902773407317584e-15 -1.1196855099014242 -21.67116500691665 -3.411535543337629 -0.827118988700207 24.88028970788233 3.717214606436218 7.951386703658791e-16 -9.939233379573489e-17 -3.9756933518293955e-16 -0.31810494637721265 -12.119067130494065 0.060175195592510645 2.2504331572804115 1.0967861889979474e-06 1.702212313949919e-06 -4.989599207941226 5.0279541076889185 1.5101441303478083 -41.12234113349799 22.980029272191164 84.44938792483323 -33.020539615484694 -1.4227358369532343e-06 1.217996016790784e-06 -6.3611093629270335e-15 -3.1805546814635168e-15 6.3611093629270335e-15 39.47646723295155 10.624468956632967 -84.57339523383553 13.895409522553022 -9.233820008418916e-07 8.96514974910182e-07 0.0 0.0 0.0
8.841239929199219 55.79273986816406 -3.1496734619140625 35.00526663863202 -63.50176983526773 40.34789586982502 0.5939065185864829 -8.95248685040467 -5.6683801261369595 -0.5573656481826048 7.225873649540333 2.231497081710908 0.0 0.0 0.0 -1.3424599433506281 -22.173599702031694 -3.320112197368966 -0.8679904365109917 24.872606787649897 3.942719559817184 1.5902773407317588e-15 2.758691436281349e-32 1.9878466759146984e-15 -0.2785536385347154 -12.060627814056629 -0.1531269784202028 2.113769563233041 -3.968897706204742e-06 -5.520601424592382e-07 -5.217638095569873 4.996583110842571 1.6843541955707295 -41.752662592547566 22.718746544241636 84.70911173760834 -32.694838584788656 1.7277189592522314e-06 4.504101698180066e-06 8.827812596100317e-32 3.180554681463516e-15 -3.180554681463516e-15 38.138989543574354 10.662592778193302 -83.9213913084418 14.660103994419693 9.688553478701814e-07 -1.2754916677798476e-06 0.0 0.0 0.0
8.895164489746094 56.06238555908203 -3.5745086669921875 34.850146574332086 -63.07148874246039 40.079898043849695 0.742685562712238 -9.389967740605824 -5.191440449408726 -0.4693888107852377 6.73672906813549 1.7873154222728018 -1.5902773407317584e-15 2.2069531490250793e-32 -1.5902773407317584e-15 -1.495861169279563 -22.81920745145121 -3.145416682665551 -0.8032547718796395 25.080146318058684 4.112800716176825 7.951386703658794e-16 2.758691436281349e-33 3.975693351829397e-16 -0.2705233302996581 -12.088201005048917 -0.6091641949076206 2.3213590250696647 -1.940759280659227e-07 -3.900034764007124e-07 -5.493757129304503 4.9069590086493875 1.9334063283750749 -41.18215031635156 22.34755326254527 84.89129759354918 -32.826574179629624 -1.3220589610834979e-06 1.852524682012456e-06 -6.3611093629270335e-15 0.0 0.0 37.73848473804278 10.770129419679355 -83.19620151522626 15.577315858904111 -2.398837200190515e-07 -6.621821364522491e-07 6.3611093629270335e-15 0.0 0.0
8.959465026855469 56.34746551513672 -4.0643157958984375 35.66558777250131 -62.197917589667824 40.67749812420497 0.560188106515319 -9.889707149832763 -4.681606093699791 -0.3839464646799245 6.318275872198548 1.4022990052952942 3.1805546814635164e-15 1.9878466759146977e-16 -5.517382872562698e-33 -1.2497454687969403 -23.87912045869934 -2.599497340478794 -0.6831573891171945 25.816355911503862 3.9389386614753183 -8.827812596100317e-32 6.3611093629270335e-15 1.5902773407317584e-15 -0.2453466104170996 -12.111636096639806 -0.9746764697350165 1.95168049644708 -4.9746060773532505e-06 -9.507451205150054e-07 -5.744739403081219 4.7843765968131855 2.260187591748787 -40.98245095623772 21.930159261847407 85.08039288428395 -32.73751575538265 -6.309852970083983e-06 -1.8493242400248102e-07 8.827812596100317e-32 3.1805546814635168e-15 -3.1805546814635168e-15 37.26979486397694 10.855895721735497 -82.34860653991213 16.557829597352892 5.135673445235362e-06 2.4906718943012304e-06 0.0 0.0 -6.3611093629270335e-15
9.0335693359375 56.644248962402344 -4.62060546875 36.30180291151116 -61.29604496895088 41.083135442778946 0.6420924621119294 -10.491690741470174 -4.02850814794356 -0.29529612574204167 5.944591969477727 0.9016996480535233 1.5902773407317582e-15 -2.2069531490250793e-32 -1.5902773407317582e-15 -1.2646226896935386 -24.940795659992254 -2.1976036137523347 -0.6287200482779992 26.973599632800727 4.118476173325919 -1.5902773407317588e-15 2.2069531490250793e-32 -1.5902773407317588e-15 -0.21973212337597142 -12.111403634901679 -1.3061971273239257 1.8507844906526492 1.0798608679882465e-06 -2.3084687549594787e-07 -6.141540167933704 4.557771331542908 2.5295729255161508 -41.16275136470488 21.28957829059602 85.09646279095179 -32.1924320272157 -5.788709764133591e-07 -1.2130985730650332e-07 0.0 -3.1805546814635164e-15 0.0 36.49109444760445 10.843693279841675 -81.38412270104516 17.515722790835035 9.119097238606701e-07 1.565021365628997e-06 -8.827812596100317e-32 3.1805546814635168e-15 3.1805546814635168e-15
9.091445922851562 56.890777587890625 -5.214599609375 37.58054953343763 -60.15074450850236 42.0549338013316 0.31308033330502877 -10.828795270973604 -3.4076675138948236 -0.22737689573355416 5.119728118765977 0.47187746290122334 1.5902773407317588e-15 2.2069531490250793e-32 1.5902773407317588e-15 -0.7634392764140988 -26.106227769123617 -1.3904278236588408 -0.3979865831027513 28.307701975322583 3.7970226912545244 7.951386703658792e-16 1.2722218725854067e-14 -7.951386703658792e-16 -0.15226158452986652 -11.931100375555657 -1.3727747253983416 1.3762536948155204 -2.6851179425185536e-06 -1.6486589331104433e-06 -6.48969919328757 4.298088844383859 2.7668596139896176 -41.91948530460532 20.57808763118424 84.88778512624343 -31.448509582625004 -5.047959421524842e-07 -4.682387609945591e-06 0.0 0.0 -3.1805546814635168e-15 36.58836756906007 10.603901527428942 -80.59173198382152 18.039125593079543 3.645815785671304e-06 -6.047035300287551e-07 0.0 0.0 -3.1805546814635168e-15
9.095436096191406 57.194496154785156 -6.0546417236328125 37.68229062319407 -59.13628034283944 41.98664729106608 0.43696201002129653 -11.666782654870604 -2.8053253334405017 -0.15771359382197642 4.323974955175358 0.13065049951803903 0.0 0.0 0.0 -0.6983882541529944 -27.50450747056731 -0.9331874123735373 -0.3907217279791876 29.909522522435854 4.0684604129805635 7.951386703658792e-16 6.3611093629270335e-15 -4.4139062980501586e-32 -0.09853517689970331 -11.961686151704145 -1.5447887027682305 1.2832823926387071 5.304743345629186e-07 -1.0288749239420198e-06 -6.649171480604298 4.095081079815625 3.144672650446137 -42.50270500263038 19.797496098523474 84.63189046756358 -30.878425854730757 -1.0533059132814372e-06 2.9512121832038013e-06 -8.827812596100317e-32 3.1805546814635168e-15 3.1805546814635168e-15 37.54505986833168 10.380270013961418 -79.69965137269418 18.514036900291252 7.087557225362905e-07 1.031465925200067e-06 0.0 0.0 -1.5902773407317584e-15
